<svg viewBox="0 0 40 40" xmlns="http://www.w3.org/2000/svg" xmlns:xlink="http://www.w3.org/1999/xlink" width="40.000000" height="40.000000" fill="none" customFrame="#000000">
	<g id="ic/burger">
		<rect id="bound" width="40.000000" height="40.000000" x="0.000000" y="0.000000" />
		<rect id="back" width="40.000000" height="40.000000" x="0.000000" y="0.000000" rx="20.000000" fill="rgb(255,62.3506,120.733)" />
		<path id="icon" d="M27.7787 27.6565C28.1692 27.266 28.1692 26.6328 27.7787 26.2423L21.5721 20.0358L27.7787 13.8293C28.1692 13.4387 28.1692 12.8056 27.7787 12.415L27.6565 12.2929C27.266 11.9024 26.6328 11.9024 26.2423 12.2929L20.0358 18.4994L13.8293 12.2929C13.4387 11.9024 12.8056 11.9024 12.415 12.2929L12.2929 12.415C11.9024 12.8056 11.9024 13.4387 12.2929 13.8293L18.4994 20.0358L12.2929 26.2423C11.9024 26.6328 11.9024 27.266 12.2929 27.6565L12.415 27.7787C12.8056 28.1692 13.4387 28.1692 13.8293 27.7787L20.0358 21.5721L26.2423 27.7787C26.6328 28.1692 27.266 28.1692 27.6565 27.7787L27.7787 27.6565Z" fill="rgb(255,255,255)" fill-rule="evenodd" />
	</g>
</svg>
