<svg viewBox="0 0 40 40" xmlns="http://www.w3.org/2000/svg" xmlns:xlink="http://www.w3.org/1999/xlink" width="40.000000" height="40.000000" fill="none" customFrame="#000000">
	<g id="ic/chat copy">
		<rect id="bound" width="40.000000" height="40.000000" x="0.000000" y="0.000000" />
		<rect id="back" width="40.000000" height="40.000000" x="0.000000" y="0.000000" rx="20.000000" fill="rgb(255,62.3506,120.733)" />
		<path id="icon" d="M16.2037 12.25L13.6637 11.96C13.0537 11.89 12.4537 12.1 12.0237 12.53L10.1837 14.37C7.35367 12.93 5.03367 10.62 3.59367 7.78L5.44367 5.93C5.87367 5.5 6.08367 4.9 6.01367 4.29L5.72367 1.77C5.60367 0.76 4.75367 0 3.73367 0L2.00367 0C0.873674 0 -0.0663265 0.94 0.00367348 2.07C0.533673 10.61 7.36367 17.43 15.8937 17.96C17.0237 18.03 17.9637 17.09 17.9637 15.96L17.9637 14.23C17.9737 13.22 17.2137 12.37 16.2037 12.25Z" fill="rgb(255,255,255)" fill-rule="evenodd" transform="matrix(-1,0,0,1,28.9639,11)" />
	</g>
</svg>
