<svg viewBox="0 0 97.25 51.3149" xmlns="http://www.w3.org/2000/svg" xmlns:xlink="http://www.w3.org/1999/xlink" width="97.250000" height="51.314941" fill="none" customFrame="#000000">
	<g id="Group">
		<path id="Fill 1" d="M35.0945 1.25L35.0945 5.52495C35.0945 6.07724 35.5422 6.52495 36.0945 6.52495L72.4214 6.52495C82.5484 6.52495 90.5019 14.3216 90.5019 24.4144C90.5019 24.7 90.7334 24.9315 91.0189 24.9315L96.2811 24.9315C96.5667 24.9315 96.7982 24.7 96.7982 24.4144C96.7982 10.9252 85.9562 0.25 72.4214 0.25L36.0945 0.25C35.5422 0.25 35.0945 0.697715 35.0945 1.25Z" fill="rgb(107,123,132)" fill-rule="evenodd" />
		<path id="Fill 1" d="M35.0945 5.52495C35.0945 6.07724 35.5422 6.52495 36.0945 6.52495L72.4214 6.52495C82.5484 6.52495 90.5019 14.3216 90.5019 24.4144C90.5019 24.7 90.7334 24.9315 91.0189 24.9315L96.2811 24.9315C96.5667 24.9315 96.7982 24.7 96.7982 24.4144C96.7982 10.9252 85.9562 0.25 72.4214 0.25L36.0945 0.25C35.5422 0.25 35.0945 0.697715 35.0945 1.25L35.0945 5.52495Z" fill-rule="evenodd" stroke="rgb(127.81,147.771,159.454)" stroke-width="0.5" />
		<path id="Fill 3" d="M6.63075 25.3694C6.63075 25.1274 6.43452 24.9312 6.19246 24.9312L0.688291 24.9312C0.446229 24.9312 0.25 25.1274 0.25 25.3694C0.25 39.0188 10.4732 50.2883 23.6927 51.0258L66.0343 51.0645C66.5869 51.065 67.0352 50.6162 67.0352 50.0636L67.0352 45.484C67.0352 44.9317 66.5875 44.484 66.0352 44.484L25.1505 44.484C14.9142 44.4556 6.63075 35.9403 6.63075 25.3694Z" fill="rgb(107,123,132)" fill-rule="evenodd" />
		<path id="Fill 3" d="M0.688291 24.9312C0.446229 24.9312 0.25 25.1274 0.25 25.3694C0.25 39.0188 10.4732 50.2883 23.6927 51.0258L66.0343 51.0645C66.5869 51.065 67.0352 50.6162 67.0352 50.0636L67.0352 45.484C67.0352 44.9317 66.5875 44.484 66.0352 44.484L25.1505 44.484C14.9142 44.4556 6.63075 35.9403 6.63075 25.3694C6.63075 25.1274 6.43452 24.9312 6.19246 24.9312L0.688291 24.9312Z" fill-rule="evenodd" stroke="rgb(127.81,147.771,159.454)" stroke-width="0.5" />
		<path id="Fill 5" d="M27.6657 39.4496C30.4045 39.4496 32.6858 38.9175 34.9391 37.8227L35.0946 37.6772L35.0946 29.8427L34.2515 30.9221C32.629 32.695 30.4501 33.6709 27.985 33.6709C23.3934 33.6709 18.7817 30.7031 18.7817 25.031C18.7817 20.7447 21.9623 16.1892 27.8235 16.1892C28.993 16.1892 31.8372 16.4657 34.2474 19.0252L35.0946 20.0689L35.0946 12.27L34.9459 12.1225C32.65 10.9719 30.3085 10.4126 27.6379 10.4126C23.0709 10.4126 19.5063 11.6149 16.668 14.0862C14.8677 15.6349 11.865 19.1057 11.865 24.9495C11.865 29.2703 13.4035 32.6447 16.691 35.5716C19.7494 38.2534 23.1404 39.4496 27.6657 39.4496Z" fill="rgb(107,123,132)" fill-rule="evenodd" />
		<path id="Fill 5" d="M34.9391 37.8227L35.0946 37.6772L35.0946 29.8427L34.2515 30.9221C32.629 32.695 30.4501 33.6709 27.985 33.6709C23.3934 33.6709 18.7817 30.7031 18.7817 25.031C18.7817 20.7447 21.9623 16.1892 27.8235 16.1892C28.993 16.1892 31.8372 16.4657 34.2474 19.0252L35.0946 20.0689L35.0946 12.27L34.9459 12.1225C32.65 10.9719 30.3085 10.4126 27.6379 10.4126C23.0709 10.4126 19.5063 11.6149 16.668 14.0862C14.8677 15.6349 11.865 19.1057 11.865 24.9495C11.865 29.2703 13.4035 32.6447 16.691 35.5716C19.7494 38.2534 23.1404 39.4496 27.6657 39.4496C30.4045 39.4496 32.6858 38.9175 34.9391 37.8227Z" fill-rule="evenodd" stroke="rgb(127.81,147.771,159.454)" stroke-width="0.5" />
		<path id="Fill 6" d="M58.0182 26.787C56.2617 28.543 53.7323 29.4751 50.5009 29.4751L47.5604 29.4751L47.5604 39.4496L40.9019 39.4496L40.9019 10.4126L49.6563 10.4126C52.9381 10.4126 55.2647 10.89 57.4451 12.8007C60.1052 15.1638 60.5019 18.4275 60.5019 20.1008C60.5019 21.6646 60.1789 24.6308 58.0182 26.787ZM47.4352 16.9459L48.7995 16.9459C50.051 16.9459 51.4773 17.0142 52.5569 17.7501C53.084 18.1266 53.9685 18.9984 53.9685 20.5817C53.9685 21.7517 53.4515 22.8008 52.5974 23.4555C51.5581 24.2099 50.3328 24.2072 49.3166 24.2049C49.2621 24.2048 49.2082 24.2047 49.155 24.2047L47.4352 24.2047L47.4352 16.9459Z" fill="rgb(107,123,132)" fill-rule="evenodd" />
		<path id="Fill 6" d="M50.5009 29.4751L47.5604 29.4751L47.5604 39.4496L40.9019 39.4496L40.9019 10.4126L49.6563 10.4126C52.9381 10.4126 55.2647 10.89 57.4451 12.8007C60.1052 15.1638 60.5019 18.4275 60.5019 20.1008C60.5019 21.6646 60.1789 24.6308 58.0182 26.787C56.2617 28.543 53.7323 29.4751 50.5009 29.4751ZM48.7995 16.9459C50.051 16.9459 51.4773 17.0142 52.5569 17.7501C53.084 18.1266 53.9685 18.9984 53.9685 20.5817C53.9685 21.7517 53.4515 22.8008 52.5974 23.4555C51.5581 24.2099 50.3328 24.2072 49.3166 24.2049C49.2621 24.2048 49.2082 24.2047 49.155 24.2047L47.4352 24.2047L47.4352 16.9459L48.7995 16.9459Z" fill-rule="evenodd" stroke="rgb(127.81,147.771,159.454)" stroke-width="0.5" />
		<path id="Fill 7" d="M80.4769 24.1259C79.0293 22.8433 77.0085 22.0997 74.715 21.3285C73.0808 20.7599 72.1804 20.4466 71.5802 19.8993C71.1064 19.4971 70.8951 19.0605 70.8951 18.4834C70.8951 17.2194 71.754 15.8686 74.1653 15.8686C75.804 15.8686 77.1761 16.5692 78.2436 17.9503L78.6674 18.4986L82.1837 14.0228L81.8631 13.7017C79.7126 11.5497 76.8788 10.4126 73.6679 10.4126C67.1896 10.4126 64.2897 14.6271 64.2897 18.8041C64.2897 21.0455 65.0891 22.8532 66.6606 24.1747C68.0676 25.3806 69.7835 26.0564 71.4293 26.6079L71.6154 26.6696C73.0769 27.1527 74.5885 27.6527 75.4913 28.4606C76.1194 29.0377 76.3993 29.6649 76.3993 30.494C76.3993 32.394 74.903 33.6709 72.676 33.6709C70.9156 33.6709 68.5975 32.808 67.3711 30.3869L67.0503 29.7525L62.6797 33.7983L62.9374 34.1629C64.3319 36.1373 67.4784 39.4496 72.8833 39.4496C78.843 39.4496 83.0056 35.6181 83.0056 30.1323C83.0056 26.9947 81.629 25.1324 80.4769 24.1259Z" fill="rgb(107,123,132)" fill-rule="evenodd" />
		<path id="Fill 7" d="M74.715 21.3285C73.0808 20.7599 72.1804 20.4466 71.5802 19.8993C71.1064 19.4971 70.8951 19.0605 70.8951 18.4834C70.8951 17.2194 71.754 15.8686 74.1653 15.8686C75.804 15.8686 77.1761 16.5692 78.2436 17.9503L78.6674 18.4986L82.1837 14.0228L81.8631 13.7017C79.7126 11.5497 76.8788 10.4126 73.6679 10.4126C67.1896 10.4126 64.2897 14.6271 64.2897 18.8041C64.2897 21.0455 65.0891 22.8532 66.6606 24.1747C68.0676 25.3806 69.7835 26.0564 71.4293 26.6079L71.6154 26.6696C73.0769 27.1527 74.5885 27.6527 75.4913 28.4606C76.1194 29.0377 76.3993 29.6649 76.3993 30.494C76.3993 32.394 74.903 33.6709 72.676 33.6709C70.9156 33.6709 68.5975 32.808 67.3711 30.3869L67.0503 29.7525L62.6797 33.7983L62.9374 34.1629C64.3319 36.1373 67.4784 39.4496 72.8833 39.4496C78.843 39.4496 83.0056 35.6181 83.0056 30.1323C83.0056 26.9947 81.629 25.1324 80.4769 24.1259C79.0293 22.8433 77.0085 22.0997 74.715 21.3285Z" fill-rule="evenodd" stroke="rgb(127.81,147.771,159.454)" stroke-width="0.5" />
	</g>
</svg>
